<?xml version="1.0" encoding="UTF-8"?>
<svg id="Layer_1" xmlns="http://www.w3.org/2000/svg" version="1.1" viewBox="0 0 233 18">
  <!-- Generator: Adobe Illustrator 29.3.1, SVG Export Plug-In . SVG Version: 2.1.0 Build 151)  -->
  <defs>
    <style>
      .st0 {
        fill: #fff;
      }
    </style>
  </defs>
  <path class="st0" d="M24.1,5.8h0l-.8,1.6-2.3,4.3-2.3-4.3-.8-1.6h0v8.2h-1.1V4.2h1.6l2.8,5.3h0l2.8-5.3h1.5v9.8h-1.1V5.8Z"/>
  <path class="st0" d="M7.2,4.2h4c.8,0,1.4.2,1.9.7.5.5.7,1.1.7,1.8s0,.7-.2.9c-.1.3-.2.5-.4.6-.2.2-.3.3-.5.4-.2,0-.4.1-.5.2h0c.2,0,.4.1.6.2.2,0,.4.2.6.4.2.2.4.4.5.7.1.3.2.6.2,1s0,.8-.2,1.1c-.1.3-.3.6-.5.9-.2.3-.5.5-.8.6-.3.1-.6.2-1,.2h-4.4V4.2ZM8.4,13h2.9c.5,0,.9-.1,1.2-.4.3-.3.4-.6.4-1.1v-.5c0-.5-.1-.9-.4-1.1-.3-.3-.7-.4-1.2-.4h-2.9v3.5ZM8.4,8.5h2.7c.5,0,.8-.1,1.1-.4.3-.2.4-.6.4-1v-.5c0-.4-.1-.8-.4-1-.3-.2-.6-.3-1.1-.3h-2.7v3.2Z"/>
  <path class="st0" d="M1,14v-1h1.4v-7.8H1v-1h3.9v1h-1.4v7.8h1.4v1H1Z"/>
  <path class="st0" d="M230.8,6.7h1.7l-2.9,8.6c0,.3-.2.5-.3.7-.1.2-.2.4-.4.5-.2.1-.4.2-.6.3s-.5,0-.8,0h-1.1v-1.4h1.3l.3-1-2.6-7.7h1.8l1.3,3.9.5,1.8h0l.5-1.8,1.3-3.9Z"/>
  <path class="st0" d="M220.6,14v-7.3h1.8v1.5h0c0-.2.1-.4.2-.6.1-.2.2-.4.4-.5.2-.1.3-.3.6-.3.2,0,.5-.1.8-.1h.4v1.7h-.6c-.6,0-1.1,0-1.4.3-.3.2-.5.5-.5.9v4.5h-1.8Z"/>
  <path class="st0" d="M217.5,14c-.6,0-1.1-.2-1.4-.5-.3-.3-.5-.8-.5-1.4v-4h-1.1v-1.4h.6c.3,0,.5,0,.5-.2.1-.1.2-.3.2-.6v-1.2h1.6v2h1.5v1.4h-1.5v4.5h1.4v1.4h-1.3Z"/>
  <path class="st0" d="M210.6,14.2c-.7,0-1.3-.1-1.8-.4-.5-.2-.9-.6-1.3-1l1.1-1.1c.3.3.6.6.9.7.3.2.7.3,1.1.3s.7,0,.9-.2c.2-.1.3-.4.3-.6s0-.4-.2-.5c-.1-.1-.4-.2-.7-.3h-.7c-.8-.2-1.4-.4-1.8-.8-.4-.4-.6-.9-.6-1.5s0-.7.2-1c.1-.3.3-.5.6-.7.2-.2.5-.4.9-.5.3-.1.7-.2,1.1-.2s.7,0,.9,0c.3,0,.5.1.8.2.2,0,.4.2.6.4.2.1.4.3.5.5l-1.1,1.1c-.2-.2-.5-.4-.8-.6-.3-.1-.6-.2-1-.2s-.7,0-.9.2c-.2.1-.3.3-.3.5s0,.4.2.6c.1.1.4.2.7.3h.7c1.6.3,2.4,1,2.4,2.3s0,.7-.2,1c-.1.3-.3.5-.6.8-.3.2-.6.4-1,.5-.4.1-.8.2-1.2.2Z"/>
  <path class="st0" d="M205,5.6c-.4,0-.6,0-.8-.3-.2-.2-.2-.4-.2-.6v-.3c0-.3,0-.5.2-.6.2-.2.4-.3.8-.3s.6,0,.8.3c.2.2.3.4.3.6v.3c0,.3,0,.5-.3.6-.2.2-.4.3-.8.3ZM204.1,6.7h1.8v7.3h-1.8v-7.3Z"/>
  <path class="st0" d="M202.9,14.6c0,.4,0,.7-.2,1-.1.3-.4.5-.7.7-.3.2-.7.3-1.2.4-.5.1-1.1.2-1.8.2s-1.1,0-1.6-.1c-.4,0-.8-.2-1.1-.3-.3-.1-.5-.3-.6-.5-.1-.2-.2-.5-.2-.7,0-.4.1-.7.3-1,.2-.2.6-.4,1-.4v-.2c-.3,0-.5-.2-.7-.4-.2-.2-.2-.5-.2-.8s0-.4.1-.5c0-.1.2-.3.3-.4.1-.1.3-.2.4-.3.2,0,.3-.1.5-.2h0c-.4-.3-.8-.5-1-.9-.2-.4-.3-.8-.3-1.3,0-.7.3-1.3.8-1.8.5-.5,1.3-.7,2.3-.7s.4,0,.7,0c.2,0,.4,0,.6.1v-.2c0-.7.3-1.1,1-1.1h1.1v1.4h-1.6v.2c.4.2.7.5.9.8s.3.7.3,1.2c0,.7-.3,1.3-.8,1.8-.5.4-1.3.7-2.3.7s-.8,0-1.1-.1c-.1,0-.3.2-.4.3-.1.1-.2.2-.2.4,0,.4.3.5,1,.5h2c.9,0,1.5.2,1.9.6.4.4.6.9.6,1.5ZM201.3,14.8c0-.2,0-.4-.3-.5-.2-.1-.5-.2-1-.2h-2.5c-.3.2-.4.4-.4.8s.1.5.3.7c.2.2.6.2,1.2.2h.9c.6,0,1,0,1.3-.2.3-.1.4-.4.4-.7ZM199.1,10.2c.9,0,1.3-.4,1.3-1.1v-.2c0-.7-.4-1.1-1.3-1.1s-1.3.4-1.3,1.1v.2c0,.7.4,1.1,1.3,1.1Z"/>
  <path class="st0" d="M191.3,14.2c-.5,0-1,0-1.5-.3-.4-.2-.8-.4-1.1-.8-.3-.3-.5-.7-.7-1.2-.2-.5-.2-1-.2-1.6s0-1.1.2-1.6c.2-.5.4-.9.7-1.2.3-.3.6-.6,1.1-.8.4-.2.9-.3,1.4-.3s1.1,0,1.5.3c.4.2.8.5,1,.8.3.3.5.7.6,1.2.1.4.2.9.2,1.4v.6h-4.9v.2c0,.5.2,1,.4,1.3.3.3.7.5,1.3.5s.8,0,1.1-.3c.3-.2.5-.4.8-.7l1,1.1c-.3.4-.7.8-1.2,1-.5.2-1.1.4-1.8.4ZM191.3,7.9c-.5,0-.9.2-1.1.5-.3.3-.4.7-.4,1.2h0c0,.1,3,.1,3,.1h0c0-.6-.1-1-.4-1.3-.2-.3-.6-.5-1.1-.5Z"/>
  <path class="st0" d="M181.1,14h-1.8V4.2h4.4c.4,0,.8,0,1.2.2.4.1.7.3.9.6.3.3.4.6.6,1,.1.4.2.8.2,1.2,0,.7-.2,1.3-.5,1.7-.3.5-.8.8-1.4,1l2,4h-2.1l-1.8-3.8h-1.8v3.8ZM183.5,8.7c.4,0,.6,0,.8-.3.2-.2.3-.5.3-.8v-.6c0-.4-.1-.6-.3-.8-.2-.2-.5-.3-.8-.3h-2.4v2.8h2.4Z"/>
  <path class="st0" d="M170.6,14.2c-.5,0-1,0-1.5-.3-.4-.2-.8-.4-1.1-.8-.3-.3-.5-.7-.7-1.2-.2-.5-.2-1-.2-1.6s0-1.1.2-1.6c.2-.5.4-.9.7-1.2.3-.3.6-.6,1.1-.8.4-.2.9-.3,1.4-.3s1.1,0,1.5.3.8.5,1,.8c.3.3.5.7.6,1.2.1.4.2.9.2,1.4v.6h-4.9v.2c0,.5.1,1,.4,1.3.3.3.7.5,1.3.5s.8,0,1.1-.3c.3-.2.5-.4.8-.7l1,1.1c-.3.4-.7.8-1.2,1-.5.2-1.1.4-1.8.4ZM170.6,7.9c-.5,0-.9.2-1.1.5-.3.3-.4.7-.4,1.2h0c0,.1,3,.1,3,.1h0c0-.6-.1-1-.4-1.3-.2-.3-.6-.5-1.1-.5Z"/>
  <path class="st0" d="M166.6,14.6c0,.4,0,.7-.2,1-.1.3-.3.5-.7.7-.3.2-.7.3-1.2.4-.5.1-1.1.2-1.8.2s-1.1,0-1.6-.1c-.4,0-.8-.2-1.1-.3-.3-.1-.5-.3-.6-.5-.1-.2-.2-.5-.2-.7,0-.4.1-.7.3-1,.2-.2.6-.4,1-.4v-.2c-.3,0-.5-.2-.7-.4-.2-.2-.2-.5-.2-.8s0-.4.1-.5c0-.1.2-.3.3-.4.1-.1.3-.2.4-.3.2,0,.3-.1.5-.2h0c-.4-.3-.8-.5-1-.9-.2-.4-.3-.8-.3-1.3,0-.7.3-1.3.8-1.8.5-.5,1.3-.7,2.3-.7s.4,0,.7,0c.2,0,.4,0,.6.1v-.2c0-.7.3-1.1,1-1.1h1.1v1.4h-1.6v.2c.4.2.7.5.9.8.2.3.3.7.3,1.2,0,.7-.3,1.3-.8,1.8-.5.4-1.3.7-2.3.7s-.8,0-1.1-.1c-.1,0-.3.2-.4.3-.1.1-.2.2-.2.4,0,.4.3.5,1,.5h2c.9,0,1.5.2,1.9.6.4.4.6.9.6,1.5ZM164.9,14.8c0-.2,0-.4-.3-.5-.2-.1-.5-.2-1-.2h-2.5c-.3.2-.4.4-.4.8s.1.5.4.7c.2.2.6.2,1.2.2h.9c.6,0,1,0,1.3-.2.3-.1.4-.4.4-.7ZM162.7,10.2c.9,0,1.3-.4,1.3-1.1v-.2c0-.7-.4-1.1-1.3-1.1s-1.3.4-1.3,1.1v.2c0,.7.4,1.1,1.3,1.1Z"/>
  <path class="st0" d="M157.4,14c-.4,0-.7-.1-.9-.3-.2-.2-.4-.5-.4-.9h0c-.1.5-.4.8-.7,1.1-.4.2-.8.4-1.4.4s-1.3-.2-1.7-.6c-.4-.4-.6-.9-.6-1.6s.3-1.3.8-1.7c.5-.4,1.3-.6,2.3-.6h1.2v-.5c0-.4-.1-.7-.3-1-.2-.2-.6-.3-1-.3s-.8,0-1,.3c-.3.2-.5.4-.6.6l-1.1-1c.3-.4.6-.8,1.1-1,.4-.3,1-.4,1.8-.4s1.7.2,2.3.7c.5.4.8,1.1.8,1.9v3.4h.7v1.4h-1ZM154.4,12.9c.4,0,.7,0,1-.3.3-.2.4-.4.4-.8v-1h-1.1c-.9,0-1.4.3-1.4.9v.2c0,.3,0,.5.3.7.2.1.5.2.8.2Z"/>
  <path class="st0" d="M144,3.6h1.8v6.2h0l1-1.3,1.6-1.9h2l-2.5,2.8,2.8,4.5h-2.1l-1.9-3.3-1,1v2.2h-1.8V3.6Z"/>
  <path class="st0" d="M139.5,14.2c-.5,0-1,0-1.4-.3-.4-.2-.8-.4-1.1-.8-.3-.3-.5-.7-.6-1.2-.2-.5-.2-1-.2-1.6s0-1.1.2-1.6c.1-.5.4-.9.6-1.2.3-.3.6-.6,1.1-.8.4-.2.9-.3,1.4-.3s1.3.2,1.8.5c.5.3.8.8,1.1,1.4l-1.5.7c0-.3-.2-.6-.5-.8-.2-.2-.5-.3-.9-.3s-.9.2-1.1.5c-.2.3-.4.7-.4,1.2v1.3c0,.5.1.9.4,1.2.3.3.6.5,1.1.5s.8-.1,1-.3c.2-.2.4-.5.5-.8l1.4.7c-.2.6-.6,1.1-1.1,1.5-.5.3-1.1.5-1.8.5Z"/>
  <path class="st0" d="M134.1,14c-.4,0-.7-.1-.9-.3-.2-.2-.4-.5-.4-.9h0c-.1.5-.4.8-.7,1.1-.4.2-.8.4-1.4.4s-1.3-.2-1.7-.6c-.4-.4-.6-.9-.6-1.6s.3-1.3.8-1.7c.5-.4,1.3-.6,2.3-.6h1.2v-.5c0-.4-.1-.7-.3-1-.2-.2-.6-.3-1-.3s-.8,0-1,.3c-.3.2-.5.4-.6.6l-1.1-1c.3-.4.6-.8,1.1-1,.4-.3,1-.4,1.8-.4s1.7.2,2.3.7c.5.4.8,1.1.8,1.9v3.4h.7v1.4h-1ZM131.1,12.9c.4,0,.7,0,1-.3.3-.2.4-.4.4-.8v-1h-1.1c-.9,0-1.4.3-1.4.9v.2c0,.3,0,.5.3.7.2.1.5.2.8.2Z"/>
  <path class="st0" d="M119.9,14V4.2h4.4c.4,0,.8,0,1.2.2.4.1.7.3.9.6.3.3.4.6.6,1,.1.4.2.8.2,1.2s0,.9-.2,1.2c-.1.4-.3.7-.6,1-.3.3-.6.5-.9.6-.4.1-.8.2-1.2.2h-2.5v3.7h-1.8ZM121.7,8.7h2.4c.4,0,.6,0,.8-.3.2-.2.3-.5.3-.8v-.6c0-.4-.1-.6-.3-.8-.2-.2-.5-.3-.8-.3h-2.4v2.8Z"/>
  <path class="st0" d="M111.5,14.2c-.7,0-1.3-.1-1.8-.4-.5-.2-.9-.6-1.3-1l1.1-1.1c.3.3.6.6.9.7.3.2.7.3,1.1.3s.7,0,.9-.2c.2-.1.3-.4.3-.6s0-.4-.2-.5c-.1-.1-.4-.2-.7-.3h-.7c-.8-.2-1.4-.4-1.8-.8-.4-.4-.6-.9-.6-1.5s0-.7.2-1c.1-.3.3-.5.6-.7.2-.2.5-.4.9-.5.3-.1.7-.2,1.1-.2s.7,0,.9,0c.3,0,.5.1.8.2.2,0,.4.2.6.4.2.1.4.3.5.5l-1,1.1c-.2-.2-.5-.4-.8-.6-.3-.1-.6-.2-1-.2s-.7,0-.9.2c-.2.1-.3.3-.3.5s0,.4.2.6c.2.1.4.2.7.3h.7c1.6.3,2.4,1,2.4,2.3s0,.7-.2,1c-.1.3-.3.5-.6.8-.3.2-.6.4-1,.5-.4.1-.8.2-1.2.2Z"/>
  <path class="st0" d="M105.1,12.8h0c-.1.4-.4.8-.7,1-.4.3-.8.4-1.3.4-.9,0-1.6-.3-2.1-1-.5-.7-.7-1.6-.7-2.8s.2-2.2.7-2.8c.5-.7,1.2-1,2.1-1s.9.1,1.3.4c.4.2.6.6.7,1h0V3.6h1.8v10.4h-1.8v-1.2ZM103.6,12.7c.4,0,.8-.1,1.1-.3.3-.2.4-.5.4-.9v-2.3c0-.4-.1-.6-.4-.9-.3-.2-.6-.3-1.1-.3s-.8.2-1.1.5c-.3.3-.4.7-.4,1.2v1.3c0,.5.1.9.4,1.2.3.3.7.5,1.1.5Z"/>
  <path class="st0" d="M95.4,14.2c-.5,0-1,0-1.4-.3-.4-.2-.8-.4-1.1-.8-.3-.3-.5-.7-.7-1.2-.2-.5-.2-1-.2-1.6s0-1.1.2-1.6.4-.9.7-1.2c.3-.3.7-.6,1.1-.8.4-.2.9-.3,1.4-.3s1,0,1.4.3c.4.2.8.4,1.1.8.3.3.5.7.7,1.2.2.5.2,1,.2,1.6s0,1.1-.2,1.6c-.2.5-.4.9-.7,1.2-.3.3-.6.6-1.1.8-.4.2-.9.3-1.4.3ZM95.4,12.7c.5,0,.8-.1,1.1-.4.3-.3.4-.7.4-1.3v-1.4c0-.6-.1-1-.4-1.3-.3-.3-.6-.4-1.1-.4s-.8.1-1.1.4c-.3.3-.4.7-.4,1.3v1.4c0,.6.1,1,.4,1.3.3.3.6.4,1.1.4Z"/>
  <path class="st0" d="M84.1,3.6h1.8v4.3h0c.1-.4.4-.7.7-1,.3-.3.8-.4,1.3-.4s1.3.2,1.7.7c.4.5.6,1.2.6,2.1v4.6h-1.8v-4.4c0-.5,0-.9-.3-1.2-.2-.3-.5-.4-.9-.4s-.4,0-.5,0c-.2,0-.3.1-.5.2-.1,0-.2.2-.3.4,0,.1-.1.3-.1.5v4.8h-1.8V3.6Z"/>
  <path class="st0" d="M81,14c-.6,0-1.1-.2-1.4-.5-.3-.3-.5-.8-.5-1.4v-4h-1.1v-1.4h.6c.3,0,.5,0,.5-.2.1-.1.2-.3.2-.6v-1.2h1.6v2h1.5v1.4h-1.5v4.5h1.4v1.4h-1.3Z"/>
  <path class="st0" d="M73.7,14.2c-.5,0-1,0-1.5-.3-.4-.2-.8-.4-1.1-.8-.3-.3-.5-.7-.7-1.2-.2-.5-.2-1-.2-1.6s0-1.1.2-1.6c.2-.5.4-.9.7-1.2.3-.3.6-.6,1.1-.8.4-.2.9-.3,1.4-.3s1.1,0,1.5.3.8.5,1,.8c.3.3.5.7.6,1.2.1.4.2.9.2,1.4v.6h-4.9v.2c0,.5.1,1,.4,1.3.3.3.7.5,1.3.5s.8,0,1.1-.3c.3-.2.5-.4.8-.7l1,1.1c-.3.4-.7.8-1.2,1-.5.2-1.1.4-1.8.4ZM73.7,7.9c-.5,0-.9.2-1.1.5-.3.3-.4.7-.4,1.2h0c0,.1,3,.1,3,.1h0c0-.6-.1-1-.4-1.3-.2-.3-.6-.5-1.1-.5Z"/>
  <path class="st0" d="M66.7,7h0l-.8,1.6-2,3.7-2-3.7-.8-1.6h0v7h-1.8V4.2h2.1l2.5,4.8h0l2.5-4.8h2v9.8h-1.8v-7Z"/>
  <path class="st0" d="M50.6,3.6h1.8v4.3h0c.1-.4.4-.8.7-1,.4-.3.8-.4,1.3-.4.9,0,1.6.3,2.1,1,.5.7.7,1.6.7,2.8s-.2,2.2-.7,2.8c-.5.7-1.2,1-2.1,1s-.9-.1-1.3-.4c-.4-.3-.6-.6-.7-1h0v1.2h-1.8V3.6ZM53.9,12.7c.5,0,.8-.2,1.1-.5.3-.3.4-.7.4-1.2v-1.3c0-.5-.1-.9-.4-1.2-.3-.3-.7-.5-1.1-.5s-.8.1-1.1.3c-.3.2-.4.5-.4.9v2.3c0,.4.1.7.4.9.3.2.6.3,1.1.3Z"/>
  <path class="st0" d="M45.6,14.2c-.5,0-1,0-1.5-.3-.4-.2-.8-.4-1.1-.8-.3-.3-.5-.7-.7-1.2-.2-.5-.2-1-.2-1.6s0-1.1.2-1.6c.2-.5.4-.9.7-1.2.3-.3.6-.6,1.1-.8.4-.2.9-.3,1.4-.3s1.1,0,1.5.3c.4.2.8.5,1,.8.3.3.5.7.6,1.2.1.4.2.9.2,1.4v.6h-4.9v.2c0,.5.1,1,.4,1.3.3.3.7.5,1.3.5s.8,0,1.1-.3c.3-.2.5-.4.8-.7l1,1.1c-.3.4-.7.8-1.2,1-.5.2-1.1.4-1.8.4ZM45.6,7.9c-.5,0-.9.2-1.1.5-.3.3-.4.7-.4,1.2h0c0,.1,3,.1,3,.1h0c0-.6-.1-1-.4-1.3-.2-.3-.6-.5-1.1-.5Z"/>
  <path class="st0" d="M30.4,6.7h1.7l.7,3,.6,2.5h0l.7-2.5.9-3h1.6l.9,3,.7,2.5h0l.6-2.5.7-3h1.7l-2,7.3h-1.9l-.9-3.2-.5-2h0l-.5,2-.9,3.2h-1.9l-2-7.3Z"/>
</svg>