<svg width="233" height="18" viewBox="0 0 233 18" fill="none" xmlns="http://www.w3.org/2000/svg">
<path d="M24.1089 5.76852H24.0389L23.2129 7.40652L20.8749 11.6625L18.5369 7.40652L17.7109 5.76852H17.6409V14.0005H16.4929V4.22852H18.0609L20.8609 9.49252H20.9309L23.7449 4.22852H25.2569V14.0005H24.1089V5.76852Z" fill="#161616"/>
<path d="M7.18652 4.22852H11.2045C12.0165 4.22852 12.6512 4.45718 13.1085 4.91452C13.5752 5.37185 13.8085 5.98318 13.8085 6.74852C13.8085 7.11252 13.7572 7.42052 13.6545 7.67252C13.5519 7.92452 13.4212 8.13452 13.2625 8.30252C13.1039 8.46118 12.9312 8.58252 12.7445 8.66652C12.5579 8.74118 12.3852 8.79252 12.2265 8.82052V8.90452C12.4039 8.91385 12.5999 8.96052 12.8145 9.04452C13.0385 9.12852 13.2485 9.26385 13.4445 9.45052C13.6405 9.62785 13.8039 9.86118 13.9345 10.1505C14.0745 10.4305 14.1445 10.7712 14.1445 11.1725C14.1445 11.5738 14.0792 11.9472 13.9485 12.2925C13.8272 12.6378 13.6545 12.9365 13.4305 13.1885C13.2065 13.4405 12.9405 13.6412 12.6325 13.7905C12.3245 13.9305 11.9885 14.0005 11.6245 14.0005H7.18652V4.22852ZM8.36252 12.9645H11.2605C11.7645 12.9645 12.1612 12.8385 12.4505 12.5865C12.7399 12.3252 12.8845 11.9472 12.8845 11.4525V10.9765C12.8845 10.4818 12.7399 10.1085 12.4505 9.85652C12.1612 9.59518 11.7645 9.46452 11.2605 9.46452H8.36252V12.9645ZM8.36252 8.45652H11.0645C11.5312 8.45652 11.8952 8.33985 12.1565 8.10652C12.4179 7.87318 12.5485 7.53718 12.5485 7.09852V6.62252C12.5485 6.18385 12.4179 5.84785 12.1565 5.61452C11.8952 5.38118 11.5312 5.26452 11.0645 5.26452H8.36252V8.45652Z" fill="#161616"/>
<path d="M0.958984 14.0005V13.0205H2.33098V5.20852H0.958984V4.22852H4.87898V5.20852H3.50698V13.0205H4.87898V14.0005H0.958984Z" fill="#161616"/>
<path d="M230.846 6.69141H232.526L229.586 15.3014C229.492 15.5627 229.385 15.7867 229.264 15.9734C229.152 16.1694 229.016 16.3281 228.858 16.4494C228.699 16.5707 228.508 16.6594 228.284 16.7154C228.06 16.7714 227.798 16.7994 227.5 16.7994H226.422V15.3714H227.738L228.074 14.3494L225.456 6.69141H227.234L228.508 10.5554L228.984 12.4034H229.068L229.572 10.5554L230.846 6.69141Z" fill="#161616"/>
<path d="M220.6 13.9994V6.69141H222.392V8.20341H222.462C222.509 8.00741 222.579 7.82074 222.672 7.64341C222.775 7.45674 222.906 7.29341 223.064 7.15341C223.223 7.01341 223.41 6.90141 223.624 6.81741C223.848 6.73341 224.105 6.69141 224.394 6.69141H224.786V8.38541H224.226C223.62 8.38541 223.162 8.47407 222.854 8.65141C222.546 8.82874 222.392 9.11807 222.392 9.51941V13.9994H220.6Z" fill="#161616"/>
<path d="M217.486 13.9995C216.87 13.9995 216.399 13.8408 216.072 13.5235C215.755 13.1968 215.596 12.7348 215.596 12.1375V8.11945H214.518V6.69145H215.078C215.349 6.69145 215.531 6.63079 215.624 6.50945C215.727 6.37879 215.778 6.18745 215.778 5.93545V4.68945H217.388V6.69145H218.886V8.11945H217.388V12.5715H218.774V13.9995H217.486Z" fill="#161616"/>
<path d="M210.561 14.1674C209.861 14.1674 209.273 14.0508 208.797 13.8174C208.321 13.5748 207.901 13.2434 207.537 12.8234L208.629 11.7594C208.9 12.0674 209.194 12.3101 209.511 12.4874C209.838 12.6648 210.211 12.7534 210.631 12.7534C211.06 12.7534 211.368 12.6788 211.555 12.5294C211.751 12.3801 211.849 12.1748 211.849 11.9134C211.849 11.6988 211.779 11.5308 211.639 11.4094C211.508 11.2788 211.28 11.1901 210.953 11.1434L210.225 11.0454C209.432 10.9428 208.825 10.7188 208.405 10.3734C207.994 10.0188 207.789 9.50544 207.789 8.83344C207.789 8.47877 207.854 8.16144 207.985 7.88144C208.116 7.5921 208.302 7.34944 208.545 7.15344C208.788 6.9481 209.077 6.7941 209.413 6.69144C209.758 6.57944 210.141 6.52344 210.561 6.52344C210.916 6.52344 211.228 6.55144 211.499 6.60744C211.779 6.6541 212.031 6.72877 212.255 6.83144C212.479 6.92477 212.684 7.0461 212.871 7.19544C213.058 7.33544 213.24 7.4941 213.417 7.67144L212.367 8.72144C212.152 8.49744 211.896 8.31077 211.597 8.16144C211.298 8.0121 210.972 7.93744 210.617 7.93744C210.225 7.93744 209.94 8.00744 209.763 8.14744C209.595 8.28744 209.511 8.46944 209.511 8.69344C209.511 8.93611 209.581 9.12277 209.721 9.25344C209.87 9.37477 210.118 9.46344 210.463 9.51944L211.205 9.61744C212.782 9.84144 213.571 10.5601 213.571 11.7734C213.571 12.1281 213.496 12.4548 213.347 12.7534C213.207 13.0428 213.006 13.2948 212.745 13.5094C212.484 13.7148 212.166 13.8781 211.793 13.9994C211.429 14.1114 211.018 14.1674 210.561 14.1674Z" fill="#161616"/>
<path d="M205.034 5.62766C204.661 5.62766 204.39 5.54366 204.222 5.37566C204.063 5.20766 203.984 4.993 203.984 4.73166V4.45166C203.984 4.19033 204.063 3.97566 204.222 3.80766C204.39 3.63966 204.661 3.55566 205.034 3.55566C205.398 3.55566 205.664 3.63966 205.832 3.80766C206 3.97566 206.084 4.19033 206.084 4.45166V4.73166C206.084 4.993 206 5.20766 205.832 5.37566C205.664 5.54366 205.398 5.62766 205.034 5.62766ZM204.138 6.69166H205.93V13.9997H204.138V6.69166Z" fill="#161616"/>
<path d="M202.943 14.6153C202.943 14.998 202.873 15.334 202.733 15.6233C202.602 15.922 202.383 16.1693 202.075 16.3653C201.767 16.5613 201.37 16.7107 200.885 16.8133C200.4 16.916 199.807 16.9673 199.107 16.9673C198.491 16.9673 197.968 16.9253 197.539 16.8413C197.11 16.7667 196.755 16.6547 196.475 16.5053C196.204 16.3653 196.008 16.188 195.887 15.9733C195.766 15.7587 195.705 15.516 195.705 15.2453C195.705 14.8347 195.817 14.5127 196.041 14.2793C196.274 14.0553 196.596 13.9107 197.007 13.8453V13.6913C196.708 13.6167 196.475 13.472 196.307 13.2573C196.148 13.0333 196.069 12.772 196.069 12.4733C196.069 12.2867 196.106 12.1233 196.181 11.9833C196.256 11.834 196.354 11.708 196.475 11.6053C196.606 11.5027 196.75 11.4187 196.909 11.3533C197.068 11.2787 197.236 11.2227 197.413 11.1853V11.1293C196.965 10.924 196.629 10.6393 196.405 10.2753C196.19 9.91132 196.083 9.48665 196.083 9.00132C196.083 8.25465 196.34 7.65732 196.853 7.20932C197.366 6.75199 198.118 6.52332 199.107 6.52332C199.331 6.52332 199.55 6.53732 199.765 6.56532C199.989 6.59332 200.194 6.63999 200.381 6.70532V6.46732C200.381 5.75799 200.726 5.40332 201.417 5.40332H202.551V6.77532H200.997V6.97132C201.38 7.18599 201.664 7.46599 201.851 7.81132C202.038 8.15665 202.131 8.55332 202.131 9.00132C202.131 9.73865 201.874 10.3313 201.361 10.7793C200.857 11.2273 200.106 11.4513 199.107 11.4513C198.678 11.4513 198.304 11.4093 197.987 11.3253C197.847 11.3907 197.726 11.4793 197.623 11.5913C197.52 11.694 197.469 11.8247 197.469 11.9833C197.469 12.3473 197.786 12.5293 198.421 12.5293H200.381C201.277 12.5293 201.926 12.716 202.327 13.0893C202.738 13.4533 202.943 13.962 202.943 14.6153ZM201.263 14.8253C201.263 14.592 201.17 14.41 200.983 14.2793C200.796 14.1487 200.474 14.0833 200.017 14.0833H197.525C197.273 14.27 197.147 14.522 197.147 14.8393C197.147 15.1193 197.264 15.3387 197.497 15.4973C197.73 15.656 198.127 15.7353 198.687 15.7353H199.583C200.171 15.7353 200.596 15.6607 200.857 15.5113C201.128 15.362 201.263 15.1333 201.263 14.8253ZM199.107 10.2333C199.984 10.2333 200.423 9.85999 200.423 9.11332V8.87532C200.423 8.12865 199.984 7.75532 199.107 7.75532C198.23 7.75532 197.791 8.12865 197.791 8.87532V9.11332C197.791 9.85999 198.23 10.2333 199.107 10.2333Z" fill="#161616"/>
<path d="M191.336 14.1674C190.795 14.1674 190.31 14.0788 189.88 13.9014C189.46 13.7148 189.101 13.4581 188.802 13.1314C188.513 12.7954 188.289 12.3941 188.13 11.9274C187.972 11.4514 187.892 10.9194 187.892 10.3314C187.892 9.75277 187.967 9.23011 188.116 8.76344C188.275 8.29677 188.499 7.9001 188.788 7.57344C189.078 7.23744 189.432 6.98077 189.852 6.80344C190.272 6.61677 190.748 6.52344 191.28 6.52344C191.85 6.52344 192.344 6.62144 192.764 6.81744C193.184 7.01344 193.53 7.27944 193.8 7.61544C194.071 7.95144 194.272 8.34344 194.402 8.79144C194.542 9.2301 194.612 9.70144 194.612 10.2054V10.7934H189.754V10.9754C189.754 11.5074 189.904 11.9368 190.202 12.2634C190.501 12.5808 190.944 12.7394 191.532 12.7394C191.98 12.7394 192.344 12.6461 192.624 12.4594C192.914 12.2728 193.17 12.0348 193.394 11.7454L194.36 12.8234C194.062 13.2434 193.651 13.5748 193.128 13.8174C192.615 14.0508 192.018 14.1674 191.336 14.1674ZM191.308 7.86744C190.832 7.86744 190.454 8.0261 190.174 8.34344C189.894 8.66077 189.754 9.07144 189.754 9.57544V9.68744H192.75V9.56144C192.75 9.05744 192.624 8.65144 192.372 8.34344C192.13 8.0261 191.775 7.86744 191.308 7.86744Z" fill="#161616"/>
<path d="M181.091 13.9995H179.243V4.22754H183.653C184.101 4.22754 184.502 4.29754 184.857 4.43754C185.211 4.57754 185.51 4.78287 185.753 5.05354C186.005 5.31487 186.196 5.63221 186.327 6.00554C186.467 6.37887 186.537 6.79421 186.537 7.25154C186.537 7.92354 186.383 8.50221 186.075 8.98754C185.776 9.47287 185.323 9.81821 184.717 10.0235L186.719 13.9995H184.661L182.841 10.2335H181.091V13.9995ZM183.471 8.67954C183.825 8.67954 184.105 8.58621 184.311 8.39954C184.516 8.20354 184.619 7.92821 184.619 7.57354V6.92954C184.619 6.57487 184.516 6.30421 184.311 6.11754C184.105 5.93087 183.825 5.83754 183.471 5.83754H181.091V8.67954H183.471Z" fill="#161616"/>
<path d="M170.649 14.1674C170.108 14.1674 169.623 14.0788 169.193 13.9014C168.773 13.7148 168.414 13.4581 168.115 13.1314C167.826 12.7954 167.602 12.3941 167.443 11.9274C167.285 11.4514 167.205 10.9194 167.205 10.3314C167.205 9.75277 167.28 9.23011 167.429 8.76344C167.588 8.29677 167.812 7.9001 168.101 7.57344C168.391 7.23744 168.745 6.98077 169.165 6.80344C169.585 6.61677 170.061 6.52344 170.593 6.52344C171.163 6.52344 171.657 6.62144 172.077 6.81744C172.497 7.01344 172.843 7.27944 173.113 7.61544C173.384 7.95144 173.585 8.34344 173.715 8.79144C173.855 9.2301 173.925 9.70144 173.925 10.2054V10.7934H169.067V10.9754C169.067 11.5074 169.217 11.9368 169.515 12.2634C169.814 12.5808 170.257 12.7394 170.845 12.7394C171.293 12.7394 171.657 12.6461 171.937 12.4594C172.227 12.2728 172.483 12.0348 172.707 11.7454L173.673 12.8234C173.375 13.2434 172.964 13.5748 172.441 13.8174C171.928 14.0508 171.331 14.1674 170.649 14.1674ZM170.621 7.86744C170.145 7.86744 169.767 8.0261 169.487 8.34344C169.207 8.66077 169.067 9.07144 169.067 9.57544V9.68744H172.063V9.56144C172.063 9.05744 171.937 8.65144 171.685 8.34344C171.443 8.0261 171.088 7.86744 170.621 7.86744Z" fill="#161616"/>
<path d="M166.582 14.6153C166.582 14.998 166.512 15.334 166.372 15.6233C166.242 15.922 166.022 16.1693 165.714 16.3653C165.406 16.5613 165.01 16.7107 164.524 16.8133C164.039 16.916 163.446 16.9673 162.746 16.9673C162.13 16.9673 161.608 16.9253 161.178 16.8413C160.749 16.7667 160.394 16.6547 160.114 16.5053C159.844 16.3653 159.648 16.188 159.526 15.9733C159.405 15.7587 159.344 15.516 159.344 15.2453C159.344 14.8347 159.456 14.5127 159.68 14.2793C159.914 14.0553 160.236 13.9107 160.646 13.8453V13.6913C160.348 13.6167 160.114 13.472 159.946 13.2573C159.788 13.0333 159.708 12.772 159.708 12.4733C159.708 12.2867 159.746 12.1233 159.82 11.9833C159.895 11.834 159.993 11.708 160.114 11.6053C160.245 11.5027 160.39 11.4187 160.548 11.3533C160.707 11.2787 160.875 11.2227 161.052 11.1853V11.1293C160.604 10.924 160.268 10.6393 160.044 10.2753C159.83 9.91132 159.722 9.48665 159.722 9.00132C159.722 8.25465 159.979 7.65732 160.492 7.20932C161.006 6.75199 161.757 6.52332 162.746 6.52332C162.97 6.52332 163.19 6.53732 163.404 6.56532C163.628 6.59332 163.834 6.63999 164.02 6.70532V6.46732C164.02 5.75799 164.366 5.40332 165.056 5.40332H166.19V6.77532H164.636V6.97132C165.019 7.18599 165.304 7.46599 165.49 7.81132C165.677 8.15665 165.77 8.55332 165.77 9.00132C165.77 9.73865 165.514 10.3313 165 10.7793C164.496 11.2273 163.745 11.4513 162.746 11.4513C162.317 11.4513 161.944 11.4093 161.626 11.3253C161.486 11.3907 161.365 11.4793 161.262 11.5913C161.16 11.694 161.108 11.8247 161.108 11.9833C161.108 12.3473 161.426 12.5293 162.06 12.5293H164.02C164.916 12.5293 165.565 12.716 165.966 13.0893C166.377 13.4533 166.582 13.962 166.582 14.6153ZM164.902 14.8253C164.902 14.592 164.809 14.41 164.622 14.2793C164.436 14.1487 164.114 14.0833 163.656 14.0833H161.164C160.912 14.27 160.786 14.522 160.786 14.8393C160.786 15.1193 160.903 15.3387 161.136 15.4973C161.37 15.656 161.766 15.7353 162.326 15.7353H163.222C163.81 15.7353 164.235 15.6607 164.496 15.5113C164.767 15.362 164.902 15.1333 164.902 14.8253ZM162.746 10.2333C163.624 10.2333 164.062 9.85999 164.062 9.11332V8.87532C164.062 8.12865 163.624 7.75532 162.746 7.75532C161.869 7.75532 161.43 8.12865 161.43 8.87532V9.11332C161.43 9.85999 161.869 10.2333 162.746 10.2333Z" fill="#161616"/>
<path d="M157.384 13.9994C156.992 13.9994 156.68 13.8874 156.446 13.6634C156.222 13.4301 156.082 13.1221 156.026 12.7394H155.942C155.821 13.2154 155.574 13.5748 155.2 13.8174C154.827 14.0508 154.365 14.1674 153.814 14.1674C153.068 14.1674 152.494 13.9714 152.092 13.5794C151.691 13.1874 151.49 12.6648 151.49 12.0114C151.49 11.2554 151.761 10.6954 152.302 10.3314C152.844 9.9581 153.614 9.77144 154.612 9.77144H155.858V9.23944C155.858 8.82877 155.751 8.51144 155.536 8.28744C155.322 8.06344 154.976 7.95144 154.5 7.95144C154.08 7.95144 153.74 8.04477 153.478 8.23144C153.226 8.40877 153.012 8.62344 152.834 8.87544L151.77 7.92344C152.041 7.50344 152.4 7.16744 152.848 6.91544C153.296 6.6541 153.889 6.52344 154.626 6.52344C155.616 6.52344 156.367 6.74744 156.88 7.19544C157.394 7.64344 157.65 8.28744 157.65 9.12744V12.5714H158.378V13.9994H157.384ZM154.416 12.8654C154.818 12.8654 155.158 12.7768 155.438 12.5994C155.718 12.4221 155.858 12.1608 155.858 11.8154V10.8494H154.71C153.777 10.8494 153.31 11.1481 153.31 11.7454V11.9834C153.31 12.2821 153.404 12.5061 153.59 12.6554C153.786 12.7954 154.062 12.8654 154.416 12.8654Z" fill="#161616"/>
<path d="M144.001 3.63965H145.793V9.88365H145.863L146.829 8.56765L148.467 6.69165H150.497L147.977 9.51965L150.763 13.9996H148.635L146.759 10.7236L145.793 11.7736V13.9996H144.001V3.63965Z" fill="#161616"/>
<path d="M139.547 14.1674C139.005 14.1674 138.525 14.0788 138.105 13.9014C137.685 13.7241 137.33 13.4674 137.041 13.1314C136.761 12.7954 136.546 12.3941 136.397 11.9274C136.247 11.4514 136.173 10.9194 136.173 10.3314C136.173 9.74344 136.247 9.21611 136.397 8.74944C136.546 8.28277 136.761 7.8861 137.041 7.55944C137.33 7.22344 137.685 6.96677 138.105 6.78944C138.525 6.6121 139.005 6.52344 139.547 6.52344C140.284 6.52344 140.891 6.68677 141.367 7.01344C141.852 7.3401 142.202 7.79277 142.417 8.37144L140.947 9.02944C140.863 8.72144 140.704 8.46944 140.471 8.27344C140.247 8.0681 139.939 7.96544 139.547 7.96544C139.043 7.96544 138.665 8.1241 138.413 8.44144C138.17 8.75877 138.049 9.1741 138.049 9.68744V11.0174C138.049 11.5308 138.17 11.9461 138.413 12.2634C138.665 12.5714 139.043 12.7254 139.547 12.7254C139.976 12.7254 140.307 12.6181 140.541 12.4034C140.774 12.1794 140.956 11.9041 141.087 11.5774L142.459 12.2354C142.216 12.8794 141.847 13.3648 141.353 13.6914C140.858 14.0088 140.256 14.1674 139.547 14.1674Z" fill="#161616"/>
<path d="M134.058 13.9994C133.666 13.9994 133.354 13.8874 133.12 13.6634C132.896 13.4301 132.756 13.1221 132.7 12.7394H132.616C132.495 13.2154 132.248 13.5748 131.874 13.8174C131.501 14.0508 131.039 14.1674 130.488 14.1674C129.742 14.1674 129.168 13.9714 128.766 13.5794C128.365 13.1874 128.164 12.6648 128.164 12.0114C128.164 11.2554 128.435 10.6954 128.976 10.3314C129.518 9.9581 130.288 9.77144 131.286 9.77144H132.532V9.23944C132.532 8.82877 132.425 8.51144 132.21 8.28744C131.996 8.06344 131.65 7.95144 131.174 7.95144C130.754 7.95144 130.414 8.04477 130.152 8.23144C129.9 8.40877 129.686 8.62344 129.508 8.87544L128.444 7.92344C128.715 7.50344 129.074 7.16744 129.522 6.91544C129.97 6.6541 130.563 6.52344 131.3 6.52344C132.29 6.52344 133.041 6.74744 133.554 7.19544C134.068 7.64344 134.324 8.28744 134.324 9.12744V12.5714H135.052V13.9994H134.058ZM131.09 12.8654C131.492 12.8654 131.832 12.7768 132.112 12.5994C132.392 12.4221 132.532 12.1608 132.532 11.8154V10.8494H131.384C130.451 10.8494 129.984 11.1481 129.984 11.7454V11.9834C129.984 12.2821 130.078 12.5061 130.264 12.6554C130.46 12.7954 130.736 12.8654 131.09 12.8654Z" fill="#161616"/>
<path d="M119.857 13.9995V4.22754H124.253C124.701 4.22754 125.102 4.30221 125.457 4.45154C125.821 4.59154 126.129 4.79687 126.381 5.06754C126.633 5.32887 126.824 5.64621 126.955 6.01954C127.086 6.39287 127.151 6.80354 127.151 7.25154C127.151 7.70887 127.086 8.12421 126.955 8.49754C126.824 8.86154 126.633 9.17887 126.381 9.44954C126.129 9.71087 125.821 9.91621 125.457 10.0655C125.102 10.2055 124.701 10.2755 124.253 10.2755H121.705V13.9995H119.857ZM121.705 8.67954H124.085C124.44 8.67954 124.72 8.58621 124.925 8.39954C125.13 8.20354 125.233 7.92821 125.233 7.57354V6.92954C125.233 6.57487 125.13 6.30421 124.925 6.11754C124.72 5.93087 124.44 5.83754 124.085 5.83754H121.705V8.67954Z" fill="#161616"/>
<path d="M111.524 14.1674C110.824 14.1674 110.236 14.0508 109.76 13.8174C109.284 13.5748 108.864 13.2434 108.5 12.8234L109.592 11.7594C109.863 12.0674 110.157 12.3101 110.474 12.4874C110.801 12.6648 111.174 12.7534 111.594 12.7534C112.024 12.7534 112.332 12.6788 112.518 12.5294C112.714 12.3801 112.812 12.1748 112.812 11.9134C112.812 11.6988 112.742 11.5308 112.602 11.4094C112.472 11.2788 112.243 11.1901 111.916 11.1434L111.188 11.0454C110.395 10.9428 109.788 10.7188 109.368 10.3734C108.958 10.0188 108.752 9.50544 108.752 8.83344C108.752 8.47877 108.818 8.16144 108.948 7.88144C109.079 7.5921 109.266 7.34944 109.508 7.15344C109.751 6.9481 110.04 6.7941 110.376 6.69144C110.722 6.57944 111.104 6.52344 111.524 6.52344C111.879 6.52344 112.192 6.55144 112.462 6.60744C112.742 6.6541 112.994 6.72877 113.218 6.83144C113.442 6.92477 113.648 7.0461 113.834 7.19544C114.021 7.33544 114.203 7.4941 114.38 7.67144L113.33 8.72144C113.116 8.49744 112.859 8.31077 112.56 8.16144C112.262 8.0121 111.935 7.93744 111.58 7.93744C111.188 7.93744 110.904 8.00744 110.726 8.14744C110.558 8.28744 110.474 8.46944 110.474 8.69344C110.474 8.93611 110.544 9.12277 110.684 9.25344C110.834 9.37477 111.081 9.46344 111.426 9.51944L112.168 9.61744C113.746 9.84144 114.534 10.5601 114.534 11.7734C114.534 12.1281 114.46 12.4548 114.31 12.7534C114.17 13.0428 113.97 13.2948 113.708 13.5094C113.447 13.7148 113.13 13.8781 112.756 13.9994C112.392 14.1114 111.982 14.1674 111.524 14.1674Z" fill="#161616"/>
<path d="M105.112 12.7816H105.042C104.911 13.2016 104.664 13.5376 104.3 13.7896C103.936 14.0416 103.511 14.1676 103.026 14.1676C102.102 14.1676 101.392 13.8363 100.898 13.1736C100.412 12.511 100.17 11.5636 100.17 10.3316C100.17 9.10898 100.412 8.17098 100.898 7.51765C101.392 6.85498 102.102 6.52365 103.026 6.52365C103.511 6.52365 103.936 6.64965 104.3 6.90165C104.664 7.14431 104.911 7.47565 105.042 7.89565H105.112V3.63965H106.904V13.9996H105.112V12.7816ZM103.6 12.6836C104.029 12.6836 104.388 12.581 104.678 12.3756C104.967 12.1703 105.112 11.8763 105.112 11.4936V9.16965C105.112 8.81498 104.967 8.53032 104.678 8.31565C104.388 8.10098 104.029 7.99365 103.6 7.99365C103.133 7.99365 102.755 8.15232 102.466 8.46965C102.186 8.77765 102.046 9.19298 102.046 9.71565V10.9756C102.046 11.4983 102.186 11.9136 102.466 12.2216C102.755 12.5296 103.133 12.6836 103.6 12.6836Z" fill="#161616"/>
<path d="M95.425 14.1674C94.9023 14.1674 94.431 14.0788 94.011 13.9014C93.6003 13.7241 93.2457 13.4674 92.947 13.1314C92.6577 12.7954 92.4337 12.3941 92.275 11.9274C92.1163 11.4514 92.037 10.9194 92.037 10.3314C92.037 9.74344 92.1163 9.21611 92.275 8.74944C92.4337 8.28277 92.6577 7.8861 92.947 7.55944C93.2457 7.22344 93.6003 6.96677 94.011 6.78944C94.431 6.6121 94.9023 6.52344 95.425 6.52344C95.9477 6.52344 96.419 6.6121 96.839 6.78944C97.259 6.96677 97.6137 7.22344 97.903 7.55944C98.2017 7.8861 98.4303 8.28277 98.589 8.74944C98.7477 9.21611 98.827 9.74344 98.827 10.3314C98.827 10.9194 98.7477 11.4514 98.589 11.9274C98.4303 12.3941 98.2017 12.7954 97.903 13.1314C97.6137 13.4674 97.259 13.7241 96.839 13.9014C96.419 14.0788 95.9477 14.1674 95.425 14.1674ZM95.425 12.7254C95.901 12.7254 96.2743 12.5808 96.545 12.2914C96.8156 12.0021 96.951 11.5774 96.951 11.0174V9.65944C96.951 9.10877 96.8156 8.68877 96.545 8.39944C96.2743 8.1101 95.901 7.96544 95.425 7.96544C94.9583 7.96544 94.5897 8.1101 94.319 8.39944C94.0483 8.68877 93.913 9.10877 93.913 9.65944V11.0174C93.913 11.5774 94.0483 12.0021 94.319 12.2914C94.5897 12.5808 94.9583 12.7254 95.425 12.7254Z" fill="#161616"/>
<path d="M84.1365 3.63965H85.9285V7.90965H85.9985C86.1479 7.51765 86.3812 7.19098 86.6985 6.92965C87.0252 6.65898 87.4732 6.52365 88.0425 6.52365C88.7985 6.52365 89.3772 6.77098 89.7785 7.26565C90.1799 7.76031 90.3805 8.46498 90.3805 9.37965V13.9996H88.5885V9.56165C88.5885 9.03898 88.4952 8.64698 88.3085 8.38565C88.1219 8.12431 87.8139 7.99365 87.3845 7.99365C87.1979 7.99365 87.0159 8.02165 86.8385 8.07765C86.6705 8.12432 86.5165 8.19898 86.3765 8.30165C86.2459 8.39498 86.1385 8.51631 86.0545 8.66565C85.9705 8.80565 85.9285 8.97365 85.9285 9.16965V13.9996H84.1365V3.63965Z" fill="#161616"/>
<path d="M81.0222 13.9995C80.4062 13.9995 79.9349 13.8408 79.6082 13.5235C79.2909 13.1968 79.1322 12.7348 79.1322 12.1375V8.11945H78.0542V6.69145H78.6142C78.8849 6.69145 79.0669 6.63079 79.1602 6.50945C79.2629 6.37879 79.3142 6.18745 79.3142 5.93545V4.68945H80.9242V6.69145H82.4222V8.11945H80.9242V12.5715H82.3102V13.9995H81.0222Z" fill="#161616"/>
<path d="M73.7276 14.1674C73.1862 14.1674 72.7009 14.0788 72.2716 13.9014C71.8516 13.7148 71.4922 13.4581 71.1936 13.1314C70.9042 12.7954 70.6802 12.3941 70.5216 11.9274C70.3629 11.4514 70.2836 10.9194 70.2836 10.3314C70.2836 9.75277 70.3582 9.23011 70.5076 8.76344C70.6662 8.29677 70.8902 7.9001 71.1796 7.57344C71.4689 7.23744 71.8236 6.98077 72.2436 6.80344C72.6636 6.61677 73.1396 6.52344 73.6716 6.52344C74.2409 6.52344 74.7356 6.62144 75.1556 6.81744C75.5756 7.01344 75.9209 7.27944 76.1916 7.61544C76.4622 7.95144 76.6629 8.34344 76.7936 8.79144C76.9336 9.2301 77.0036 9.70144 77.0036 10.2054V10.7934H72.1456V10.9754C72.1456 11.5074 72.2949 11.9368 72.5936 12.2634C72.8922 12.5808 73.3356 12.7394 73.9236 12.7394C74.3716 12.7394 74.7356 12.6461 75.0156 12.4594C75.3049 12.2728 75.5616 12.0348 75.7856 11.7454L76.7516 12.8234C76.4529 13.2434 76.0422 13.5748 75.5196 13.8174C75.0062 14.0508 74.4089 14.1674 73.7276 14.1674ZM73.6996 7.86744C73.2236 7.86744 72.8456 8.0261 72.5656 8.34344C72.2856 8.66077 72.1456 9.07144 72.1456 9.57544V9.68744H75.1416V9.56144C75.1416 9.05744 75.0156 8.65144 74.7636 8.34344C74.5209 8.0261 74.1662 7.86744 73.6996 7.86744Z" fill="#161616"/>
<path d="M66.6738 6.98554H66.6178L65.8618 8.53954L63.8598 12.2355L61.8578 8.53954L61.1018 6.98554H61.0458V13.9995H59.2958V4.22754H61.3818L63.8878 9.00154H63.9438L66.4218 4.22754H68.4238V13.9995H66.6738V6.98554Z" fill="#161616"/>
<path d="M50.6293 3.63965H52.4213V7.89565H52.4773C52.608 7.47565 52.8553 7.14431 53.2193 6.90165C53.5833 6.64965 54.008 6.52365 54.4933 6.52365C55.4267 6.52365 56.136 6.85498 56.6213 7.51765C57.116 8.17098 57.3633 9.10898 57.3633 10.3316C57.3633 11.5636 57.116 12.511 56.6213 13.1736C56.136 13.8363 55.4267 14.1676 54.4933 14.1676C54.008 14.1676 53.5833 14.0416 53.2193 13.7896C52.8647 13.5376 52.6173 13.2016 52.4773 12.7816H52.4213V13.9996H50.6293V3.63965ZM53.9193 12.6836C54.386 12.6836 54.764 12.5296 55.0533 12.2216C55.3427 11.9136 55.4873 11.4983 55.4873 10.9756V9.71565C55.4873 9.19298 55.3427 8.77765 55.0533 8.46965C54.764 8.15232 54.386 7.99365 53.9193 7.99365C53.49 7.99365 53.1307 8.10098 52.8413 8.31565C52.5613 8.53032 52.4213 8.81498 52.4213 9.16965V11.4936C52.4213 11.8763 52.5613 12.1703 52.8413 12.3756C53.1307 12.581 53.49 12.6836 53.9193 12.6836Z" fill="#161616"/>
<path d="M45.6167 14.1674C45.0753 14.1674 44.59 14.0788 44.1607 13.9014C43.7407 13.7148 43.3813 13.4581 43.0827 13.1314C42.7933 12.7954 42.5693 12.3941 42.4107 11.9274C42.252 11.4514 42.1727 10.9194 42.1727 10.3314C42.1727 9.75277 42.2473 9.23011 42.3967 8.76344C42.5553 8.29677 42.7793 7.9001 43.0687 7.57344C43.358 7.23744 43.7127 6.98077 44.1327 6.80344C44.5527 6.61677 45.0287 6.52344 45.5607 6.52344C46.13 6.52344 46.6247 6.62144 47.0447 6.81744C47.4647 7.01344 47.81 7.27944 48.0807 7.61544C48.3513 7.95144 48.552 8.34344 48.6827 8.79144C48.8227 9.2301 48.8927 9.70144 48.8927 10.2054V10.7934H44.0347V10.9754C44.0347 11.5074 44.184 11.9368 44.4827 12.2634C44.7813 12.5808 45.2247 12.7394 45.8127 12.7394C46.2607 12.7394 46.6247 12.6461 46.9047 12.4594C47.194 12.2728 47.4507 12.0348 47.6747 11.7454L48.6407 12.8234C48.342 13.2434 47.9313 13.5748 47.4087 13.8174C46.8953 14.0508 46.298 14.1674 45.6167 14.1674ZM45.5887 7.86744C45.1127 7.86744 44.7347 8.0261 44.4547 8.34344C44.1747 8.66077 44.0347 9.07144 44.0347 9.57544V9.68744H47.0307V9.56144C47.0307 9.05744 46.9047 8.65144 46.6527 8.34344C46.41 8.0261 46.0553 7.86744 45.5887 7.86744Z" fill="#161616"/>
<path d="M30.441 6.69141H32.163L32.905 9.70141L33.479 12.2074H33.535L34.207 9.70141L35.061 6.69141H36.685L37.567 9.70141L38.253 12.2074H38.309L38.883 9.70141L39.611 6.69141H41.277L39.275 13.9994H37.343L36.405 10.7794L35.859 8.79141H35.817L35.285 10.7794L34.361 13.9994H32.457L30.441 6.69141Z" fill="#161616"/>
</svg>
